<?xml version="1.0" encoding="UTF-8"?>
<svg id="Ebene_2" xmlns="http://www.w3.org/2000/svg" version="1.1" viewBox="0 0 1138.4 698.4">
  <!-- Generator: Adobe Illustrator 29.3.1, SVG Export Plug-In . SVG Version: 2.1.0 Build 151)  -->
  <defs>
    <style>
      .st0 {
        fill: #514d25;
      }
    </style>
  </defs>
  <g>
    <path class="st0" d="M95.9,448.7c-16.4,0-31.3-3.8-44.8-11.4-13.5-7.6-24.2-18.9-32.1-33.9-7.9-15-11.9-33.4-11.9-55.3v-109.6h71.9v104.4c0,7.6,1.3,13.8,3.8,18.4,2.5,4.6,6.6,7,12.3,7,10.9,0,16.3-8,16.3-24.1V7.3h73.4v328.1c0,23.2-3.8,43.3-11.4,60.3-7.6,17-18,30.1-31.4,39.3-13.4,9.2-28.7,13.8-46.1,13.8Z"/>
    <path class="st0" d="M194.3,444.7L229.4,7.3h123.4l34.5,437.4h-68.8l-5.2-70.6h-43.8l-4.5,70.6h-70.7ZM274.6,304.3h33.1l-15.9-222.4h-3.3l-13.8,222.4Z"/>
    <path class="st0" d="M401.1,444.7V7.3h98.6c26.5,0,45.7,7.7,57.8,23.2,12.1,15.5,18.1,41.1,18.1,76.7v19.1c0,20.5-3.1,37.2-9.2,50-6.1,12.8-15.5,21.1-28,25.1,16.4,5,27.4,16.6,33,34.9,5.6,18.3,8.4,40.6,8.4,67s-2.2,53.1-6.6,74.3c-4.4,21.2-12.4,37.7-24,49.5-11.6,11.8-28,17.6-49.4,17.6h-98.6ZM472.2,172.1h14.9c6.7,0,11.1-3.1,13-9.4,1.9-6.3,2.9-13.8,2.9-22.6v-44c0-14.1-5.2-21.1-15.5-21.1h-15.3v97.2ZM479.4,367.7c18.9,0,28.3-10.8,28.3-32.3v-54.7c0-12.4-1.5-22.2-4.6-29.5-3.1-7.2-8.9-10.8-17.5-10.8h-13.4v126.8c3,.3,5.4.5,7.2.5Z"/>
    <path class="st0" d="M586.7,444.7V7.3h145.5v84.5h-71.5v85.2h68.6v82.3h-68.6v100.2h76.3v85.2h-150.2Z"/>
    <path class="st0" d="M751.4,444.7v-79.5l83.3-277.4h-83.5V7.3h160.2v76.5l-84.7,280.3h81.2v80.5h-156.4Z"/>
    <path class="st0" d="M916.1,444.7L951.2,7.3h123.4l34.5,437.4h-68.8l-5.2-70.6h-43.8l-4.5,70.6h-70.7ZM996.5,304.3h33.1l-15.9-222.4h-3.3l-13.8,222.4Z"/>
  </g>
  <g>
    <path class="st0" d="M15.3,689.3v-204.7h187.6v39.9h-93.3v32.6h88.5v39.4h-88.5v92.8H15.3Z"/>
    <path class="st0" d="M217.8,689.3v-204.7h90.6v204.7h-90.6Z"/>
    <path class="st0" d="M323.9,689.3v-204.7h93.8v169.8h96.4v34.9h-190.2Z"/>
    <path class="st0" d="M525.5,689.3v-204.7h142.8l39.4,124.8,39.2-124.8h144.1v204.7h-85.8v-147.4l-53.8,147.4h-84.2l-57-147.4v147.4h-84.7Z"/>
    <path class="st0" d="M1022.1,691.1c-42.8,0-73.7-4.7-92.6-14s-28.4-24.1-28.4-44.4v-20h92.7v25.6c0,4.7,1.6,8.4,4.9,11.1,3.3,2.7,9,4,17.2,4s14.4-1.1,17.7-3.3c3.3-2.2,4.9-5.7,4.9-10.7s-1.4-11.5-4.3-15.8c-2.8-4.2-7.8-8.3-14.8-12.1-7-3.8-16.7-8.3-29.2-13.4l-42.1-17.4c-31.4-12.9-47.2-27.8-47.2-44.4s9.3-30.7,27.8-39.9c18.6-9.1,45.4-13.7,80.6-13.7s73.5,5,91.5,15c18,10,27,25.2,27,45.6h-95.4v-14.1c0-2.8-1.8-5-5.5-6.5-3.6-1.6-8.6-2.3-14.8-2.3s-12.9.9-16.4,2.7c-3.5,1.8-5.2,4.2-5.2,7s1.8,6,5.3,9.3c3.6,3.3,10.6,7.2,21,11.5l54.1,22.7c10.8,4.5,20.8,9.2,29.8,14.2,9.1,5,16.3,10.8,21.8,17.4,5.5,6.6,8.3,14.7,8.3,24.2,0,19.2-8.1,34.3-24.4,45.2-16.3,10.9-44.5,16.3-84.9,16.3Z"/>
  </g>
</svg>